{"title":"A.Young.Girls.Desires.5.DISC.1.2.xXx.2014-BASTARD","uid":10678505,"size":5604975085,"categoryP":"porn","categoryS":"movie_clips","magnet":"?xt=urn:btih:9d21a354903222fdd880d577d3911395b5f9194b&amp;dn=A.Young.Girls.Desires.5.DISC.1.2.xXx.2014-BASTARD&amp;tr=udp%3A%2F%2Ftracker.openbittorrent.com%3A80&amp;tr=udp%3A%2F%2Fopen.demonii.com%3A1337&amp;tr=udp%3A%2F%2Ftracker.coppersurfer.tk%3A6969&amp;tr=udp%3A%2F%2Fexodus.desync.com%3A6969","seeders":1,"leechers":0,"uploader":"iH2OSO4","files":-1,"time":1406997849,"description":"Young Girl's Desires # 5 \nFeaturing Janice Griffith!2 Disc Set! Over 6 Hours! 12 Scenes!Get pumped up for a cumming-of-age tale that features the sluttiest young teens including Janice Griffith, Lexi Bates, Evilyn Fierce, Katerina Kay, and more! These girls may seem innocent, but they have a dark erotic side that they want to show! Check out this juicy 2-disc set that's packed with hot young sex!\n\nSource: &lt;a href=&quot; http://vasileturcu.ro/i/1256.html&quot; rel=&quot;nofollow&quot; target=&quot;_NEW&quot;&gt; http://vasileturcu.ro/i/1256.html&lt;/a&gt;\n\nGeneral\nComplete name                    : A.Young.Girls.Desires.5.DISC.1.xXx.2014-BASTARD.mp4\nFormat                           : MPEG-4\nFormat profile                   : Base Media\nCodec ID                         : isom\nFile size                        : 2.54 GiB\nDuration                         : 2h 57mn\nOverall bit rate                 : 2 046 Kbps\nEncoded date                     : UTC 2014-08-02 10:29:50\nTagged date                      : UTC 2014-08-02 10:29:50\n\nVideo\nID                               : 1\nFormat                           : MPEG-4 Visual\nFormat profile                   : Simple@L1\nFormat settings, BVOP            : No\nFormat settings, QPel            : No\nFormat settings, GMC             : No warppoints\nFormat settings, Matrix          : Default (H.263)\nCodec ID                         : 20\nDuration                         : 2h 57mn\nBit rate mode                    : Variable\nBit rate                         : 1 918 Kbps\nMaximum bit rate                 : 3 859 Kbps\nWidth                            : 712 pixels\nHeight                           : 400 pixels\nDisplay aspect ratio             : 16:9\nFrame rate mode                  : Constant\nFrame rate                       : 23.976 fps\nColor space                      : YUV\nChroma subsampling               : 4:2:0\nBit depth                        : 8 bits\nScan type                        : Progressive\nCompression mode                 : Lossy\nBits/(Pixel*Frame)               : 0.281\nStream size                      : 2.38 GiB (94%)\nWriting library                  : Lavc53.8.0\nEncoded date                     : UTC 2014-08-02 10:29:50\nTagged date                      : UTC 2014-08-02 10:33:29\n\nAudio\nID                               : 2\nFormat                           : AAC\nFormat/Info                      : Advanced Audio Codec\nFormat profile                   : LC\nCodec ID                         : 40\nDuration                         : 2h 57mn\nBit rate mode                    : Variable\nBit rate                         : 126 Kbps\nMaximum bit rate                 : 257 Kbps\nChannel(s)                       : 2 channels\nChannel positions                : Front: L R\nSampling rate                    : 44.1 KHz\nCompression mode                 : Lossy\nStream size                      : 159 MiB (6%)\nEncoded date                     : UTC 2014-08-02 10:32:47\nTagged date                      : UTC 2014-08-02 10:33:29\n\n\n\n//////////////////////////////\n\n\n\nGeneral\nComplete name                    : A.Young.Girls.Desires.5.DISC.2.xXx.2014-BASTARD.mp4\nFormat                           : MPEG-4\nFormat profile                   : Base Media\nCodec ID                         : isom\nFile size                        : 2.68 GiB\nDuration                         : 3h 7mn\nOverall bit rate                 : 2 047 Kbps\nEncoded date                     : UTC 2014-08-02 11:56:02\nTagged date                      : UTC 2014-08-02 11:56:02\n\nVideo\nID                               : 1\nFormat                           : MPEG-4 Visual\nFormat profile                   : Simple@L1\nFormat settings, BVOP            : No\nFormat settings, QPel            : No\nFormat settings, GMC             : No warppoints\nFormat settings, Matrix          : Default (H.263)\nCodec ID                         : 20\nDuration                         : 3h 7mn\nBit rate mode                    : Variable\nBit rate                         : 1 919 Kbps\nMaximum bit rate                 : 6 132 Kbps\nWidth                            : 712 pixels\nHeight                           : 400 pixels\nDisplay aspect ratio             : 16:9\nFrame rate mode                  : Constant\nFrame rate                       : 23.976 fps\nColor space                      : YUV\nChroma subsampling               : 4:2:0\nBit depth                        : 8 bits\nScan type                        : Progressive\nCompression mode                 : Lossy\nBits/(Pixel*Frame)               : 0.281\nStream size                      : 2.51 GiB (94%)\nWriting library                  : Lavc53.8.0\nEncoded date                     : UTC 2014-08-02 11:56:02\nTagged date                      : UTC 2014-08-02 11:57:38\n\nAudio\nID                               : 2\nFormat                           : AAC\nFormat/Info                      : Advanced Audio Codec\nFormat profile                   : LC\nCodec ID                         : 40\nDuration                         : 3h 7mn\nBit rate mode                    : Variable\nBit rate                         : 126 Kbps\nMaximum bit rate                 : 236 Kbps\nChannel(s)                       : 2 channels\nChannel positions                : Front: L R\nSampling rate                    : 44.1 KHz\nCompression mode                 : Lossy\nStream size                      : 168 MiB (6%)\nEncoded date                     : UTC 2014-08-02 11:57:16\nTagged date                      : UTC 2014-08-02 11:57:38\n &lt;a href=&quot;\nhttp://www.cduniverse.com/productinfo.asp?pid=9288308&amp;style=ice&quot; rel=&quot;nofollow&quot; target=&quot;_NEW&quot;&gt;\nhttp://www.cduniverse.com/productinfo.asp?pid=9288308&amp;style=ice&lt;/a&gt;\n\n\n","torrent":{"xt":"urn:btih:9d21a354903222fdd880d577d3911395b5f9194b","amp;dn":"A.Young.Girls.Desires.5.DISC.1.2.xXx.2014-BASTARD","amp;tr":["udp%3A%2F%2Ftracker.openbittorrent.com%3A80","udp%3A%2F%2Fopen.demonii.com%3A1337","udp%3A%2F%2Ftracker.coppersurfer.tk%3A6969","udp%3A%2F%2Fexodus.desync.com%3A6969"],"infoHash":"9d21a354903222fdd880d577d3911395b5f9194b","infoHashBuffer":{"type":"Buffer","data":[157,33,163,84,144,50,34,253,216,128,213,119,211,145,19,149,181,249,25,75]},"announce":[],"urlList":[]}}